# ProBuilder 4.2.3
# https://unity3d.com/unity/features/worldbuilding/probuilder
# 10.07.2020 17:43:32

mtllib ./NewIndicator.mtl
o NewIndicator

g NewIndicator
v -0.482963 0 0.1294093
v -0.482963 0.1 0.1294093
v -0.3966768 0 0.3043805
v -0.3966768 0.1 0.3043805
v -0.5571009 -0.006207108 0.4689431
v -0.5571009 0.1062071 0.4689431
v -0.3922156 -0.006207108 0.6135439
v -0.3922156 0.1062071 0.6135439
v -0.2500002 0 0.4330126
v -0.2500002 0.1 0.4330126
v -0.06526332 0 0.4957224
v -0.06526332 0.1 0.4957224
v 0.1294093 0 0.482963
v 0.1294093 0.1 0.482963
v 0.3043805 0 0.3966768
v 0.3043805 0.1 0.3966768
v 0.4689431 -0.006207108 0.557101
v 0.4689431 0.1062071 0.557101
v 0.6135439 -0.006207108 0.3922156
v 0.6135439 0.1062071 0.3922156
v 0.4330126 0 0.2500002
v 0.4330126 0.1 0.2500002
v 0.4957224 0 0.06526336
v 0.4957224 0.1 0.06526336
v 0.4829629 0 -0.1294093
v 0.4829629 0.1 -0.1294093
v 0.3966768 0 -0.3043805
v 0.3966768 0.1 -0.3043805
v 0.5571009 -0.006207108 -0.4689431
v 0.5571009 0.1062071 -0.4689431
v 0.3922156 -0.006207108 -0.6135439
v 0.3922156 0.1062071 -0.6135439
v 0.2500002 0 -0.4330125
v 0.2500002 0.1 -0.4330125
v 0.06526335 0 -0.4957224
v 0.06526335 0.1 -0.4957224
v -0.1294093 0 -0.482963
v -0.1294093 0.1 -0.482963
v -0.3043806 0 -0.3966767
v -0.3043806 0.1 -0.3966767
v -0.4689433 -0.006207108 -0.5571008
v -0.4689433 0.1062071 -0.5571008
v -0.6135438 -0.006207108 -0.3922157
v -0.6135438 0.1062071 -0.3922157
v -0.4330126 0 -0.2500003
v -0.4330126 0.1 -0.2500003
v -0.4957224 0 -0.06526332
v -0.4957224 0.1 -0.06526332
v -0.3622223 0 0.09705697
v -0.2975076 0 0.2282854
v -0.1875001 0 0.3247594
v -0.0489475 0 0.3717918
v 0.09705696 0 0.3622222
v 0.2282854 0 0.2975076
v 0.3247594 0 0.1875001
v 0.3717918 0 0.04894752
v 0.3622222 0 -0.097057
v 0.2975076 0 -0.2282854
v 0.1875001 0 -0.3247594
v 0.04894751 0 -0.3717918
v -0.09705698 0 -0.3622222
v -0.2282855 0 -0.2975076
v -0.3247594 0 -0.1875002
v -0.3717918 0 -0.04894749
v -0.3622223 0.1 0.09705697
v -0.2975076 0.1 0.2282854
v -0.1875001 0.1 0.3247594
v -0.0489475 0.1 0.3717918
v 0.09705696 0.1 0.3622222
v 0.2282854 0.1 0.2975076
v 0.3247594 0.1 0.1875001
v 0.3717918 0.1 0.04894752
v 0.3622222 0.1 -0.097057
v 0.2975076 0.1 -0.2282854
v 0.1875001 0.1 -0.3247594
v 0.04894751 0.1 -0.3717918
v -0.09705698 0.1 -0.3622222
v -0.2282855 0.1 -0.2975076
v -0.3247594 0.1 -0.1875002
v -0.3717918 0.1 -0.04894749
v 0.0580212 0.017256 -0.1388238
v 0.1300629 0.017256 -0.07564486
v 0.0580212 0.082744 -0.1388238
v 0.1300629 0.082744 -0.07564486
v -0.1388238 0.017256 -0.05802124
v -0.07564491 0.017256 -0.1300629
v -0.1388238 0.082744 -0.05802124
v -0.07564491 0.082744 -0.1300629
v -0.05802123 0.017256 0.1388238
v -0.1300629 0.017256 0.07564485
v -0.05802123 0.082744 0.1388238
v -0.1300629 0.082744 0.07564485
v 0.1388238 0.017256 0.05802121
v 0.07564482 0.017256 0.1300629
v 0.1388238 0.082744 0.05802121
v 0.07564482 0.082744 0.1300629

vt 0 0
vt 0 0.1
vt 0.1950903 0
vt 0.1950903 0.1
vt 0.18024 0
vt 0.18024 0.1
vt 0.3753303 0
vt 0.3753303 0.1
vt 0.3181896 0
vt 0.3181896 0.1
vt 0.5132799 0
vt 0.5132799 0.1
vt 0.3928475 0
vt 0.3928475 0.1
vt 0.5879378 0
vt 0.5879378 0.1
vt -0.1950904 0
vt -0.1950904 0.1
vt -0.3753303 0
vt -0.3753303 0.1
vt -0.18024 0
vt -0.18024 0.1
vt -0.5132799 0
vt -0.5132799 0.1
vt -0.3181896 0
vt -0.3181896 0.1
vt -0.5879378 0
vt -0.5879378 0.1
vt -0.3928474 0
vt -0.3928474 0.1
vt 0.125 0
vt 0.03806025 0.1913417
vt 0.1535452 0.1435063
vt 0.1464466 0.3535534
vt 0.234835 0.265165
vt 0.3086583 0.4619398
vt 0.3564937 0.3464548
vt 0.5 0.5
vt 0.5 0.375
vt 0.6913417 0.4619398
vt 0.6435063 0.3464548
vt 0.8535534 0.3535534
vt 0.7651651 0.265165
vt 0.9619398 0.1913417
vt 0.8464549 0.1435063
vt 1 -4.371139E-08
vt 0.875 -3.278354E-08
vt 0.9619398 -0.1913417
vt 0.8464549 -0.1435063
vt 0.8535534 -0.3535534
vt 0.7651651 -0.265165
vt 0.6913418 -0.4619398
vt 0.6435063 -0.3464548
vt 0.5 -0.5
vt 0.5 -0.375
vt 0.3086582 -0.4619397
vt 0.3564937 -0.3464548
vt 0.1464467 -0.3535534
vt 0.234835 -0.2651651
vt 0.03806022 -0.1913417
vt 0.1535452 -0.1435063
vt -0.125 0
vt -0.1535452 0.1435063
vt -0.03806025 0.1913417
vt -0.234835 0.265165
vt -0.1464466 0.3535534
vt -0.3564937 0.3464548
vt -0.3086583 0.4619398
vt -0.5 0.375
vt -0.5 0.5
vt -0.6435063 0.3464548
vt -0.6913417 0.4619398
vt -0.7651651 0.265165
vt -0.8535534 0.3535534
vt -0.8464549 0.1435063
vt -0.9619398 0.1913417
vt -0.875 -3.278354E-08
vt -1 -4.371139E-08
vt -0.8464549 -0.1435063
vt -0.9619398 -0.1913417
vt -0.7651651 -0.265165
vt -0.8535534 -0.3535534
vt -0.6435063 -0.3464548
vt -0.6913418 -0.4619398
vt -0.5 -0.375
vt -0.5 -0.5
vt -0.3086582 -0.4619397
vt -0.3564937 -0.3464548
vt -0.1464467 -0.3535534
vt -0.234835 -0.2651651
vt -0.1535452 -0.1435063
vt -0.03806022 -0.1913417
vt -0.07315895 0
vt 0.07315885 0
vt -0.07315895 0.1
vt 0.07315885 0.1
vt -0.0479103 0.017256
vt 0.04791025 0.017256
vt -0.0479103 0.082744
vt 0.04791025 0.082744
vt 0.4948512 0
vt 0.4948512 0.1
vt 0.7246702 -0.006207108
vt 0.7246702 0.1062071
vt -0.3535134 -0.3533447
vt -0.1913202 -0.4617583
vt -0.491163 -0.5374856
vt -0.3088348 -0.659358
vt 0.1928227 -0.4640061
vt 0.3550159 -0.3555924
vt 0.3103373 -0.6616057
vt 0.4926655 -0.5397334
vt -0.4948512 0.1
vt -0.4948512 0
vt -0.7246702 0.1062071
vt -0.7246702 -0.006207108
vt -0.353464 0.3533941
vt -0.461823 0.1911641
vt -0.5376515 0.4909815
vt -0.6594623 0.308612
vt 0.4640712 0.1926658
vt 0.3557123 0.3548958
vt 0.6617106 0.3101136
vt 0.5398997 0.4924832
vt 0.3535135 0.3533446
vt 0.1913201 0.4617584
vt 0.4911632 0.5374855
vt 0.3088347 0.6593581
vt -0.1928225 0.4640062
vt -0.355016 0.3555924
vt -0.3103372 0.6616058
vt -0.4926656 0.5397333
vt 0.3534641 -0.3533941
vt 0.461823 -0.1911641
vt 0.5376515 -0.4909815
vt 0.6594623 -0.308612
vt -0.4640712 -0.1926658
vt -0.3557123 -0.3548957
vt -0.6617106 -0.3101136
vt -0.5398998 -0.4924832
vt 0.3457536 -0.1424416
vt 0.2646284 -0.2642101
vt 0.1438182 -0.03824601
vt 0.09069087 -0.1179898
vt -0.3736562 0
vt -0.3736562 0.1
vt -0.1470798 0.017256
vt -0.1470798 0.082744
vt -0.2709876 -0.2684468
vt -0.3521128 -0.1466783
vt -0.09705011 -0.1222265
vt -0.1501774 -0.0424827
vt 0.3736562 0.1
vt 0.3736562 0
vt 0.1470798 0.082744
vt 0.1470798 0.017256
vt 0.1433764 0.345367
vt 0.264925 0.2639126
vt 0.0386349 0.1437142
vt 0.1182347 0.09037135
vt -0.2691789 0.2702604
vt -0.1476302 0.3517148
vt -0.1224886 0.0967191
vt -0.04288877 0.150062
vt -0.1433765 -0.345367
vt -0.264925 -0.2639127
vt -0.03863496 -0.1437142
vt -0.1182346 -0.09037138
vt 0.2691788 -0.2702605
vt 0.1476303 -0.3517147
vt 0.1224885 -0.09671913
vt 0.04288883 -0.1500619
vt -0.3457536 0.1424416
vt -0.2646283 0.2642101
vt -0.1438182 0.03824601
vt -0.09069085 0.1179898
vt 0.2709876 0.2684468
vt 0.3521128 0.1466783
vt 0.09705009 0.1222265
vt 0.1501774 0.04248269

vn -0.965926 0 0.2588186
vn -0.896873 0 0.4422883
vn -0.6593465 0 0.7518393
vn -0.32144 0 0.94693
vn -0.1305266 0 0.9914448
vn 0.2588186 0 0.965926
vn 0.4422882 0 0.896873
vn 0.7518394 0 0.6593463
vn 0.94693 0 0.32144
vn 0.9914448 0 0.1305266
vn 0.9659259 0 -0.2588187
vn 0.8968729 0 -0.4422884
vn 0.6593466 0 -0.7518392
vn 0.3214402 0 -0.9469299
vn 0.1305268 0 -0.9914448
vn -0.2588187 0 -0.9659259
vn -0.4422883 0 -0.8968729
vn -0.7518396 0 -0.6593461
vn -0.9469299 0 -0.3214401
vn -0.9914448 0 -0.1305267
vn 0 -1 0
vn 0 1 0
vn -0.997859 0 0.06540254
vn 0.06540255 0 0.997859
vn 0.9978589 0 -0.06540277
vn -0.06540257 0 -0.997859
vn 0.6980455 0 -0.7160535
vn 0.02032701 -0.9996344 0.01782633
vn 0.02032701 0.9996344 0.01782633
vn -0.6188149 0 0.7855368
vn -0.7160534 0 -0.6980456
vn 0.01782633 -0.9996344 -0.02032701
vn 0.01782633 0.9996344 -0.02032702
vn 0.7855369 0 0.6188149
vn -0.6980455 0 0.7160534
vn -0.02032701 -0.9996344 -0.01782632
vn -0.02032701 0.9996344 -0.01782632
vn 0.6188148 0 -0.785537
vn 0.7160534 0 0.6980456
vn -0.01782632 -0.9996344 0.020327
vn -0.01782633 0.9996344 0.02032701
vn -0.785537 0 -0.6188147
vn -0.05038261 -0.9970763 0.05745029
vn -0.8206311 0 -0.5714583
vn -0.05038263 0.9970763 0.0574503
vn 0.6736825 0 0.7390209
vn -0.05745029 -0.9970763 -0.0503826
vn 0.5714582 0 -0.8206312
vn -0.0574503 0.9970763 -0.05038261
vn -0.739021 0 0.6736825
vn 0.05745029 -0.9970763 0.0503826
vn -0.5714583 0 0.8206311
vn 0.05745029 0.9970763 0.05038261
vn 0.7390209 0 -0.6736825
vn 0.0503826 -0.9970763 -0.05745031
vn 0.8206313 0 0.571458
vn 0.05038261 0.9970763 -0.05745032
vn -0.6736825 0 -0.739021

usemtl NewIndicator
f 3/3/2 4/4/2 2/2/1 1/1/1
f 7/7/3 8/8/3 6/6/3 5/5/3
f 11/11/5 12/12/5 10/10/4 9/9/4
f 13/15/6 14/16/6 12/14/5 11/13/5
f 15/15/7 16/16/7 14/14/6 13/13/6
f 19/11/8 20/12/8 18/10/8 17/9/8
f 23/7/10 24/8/10 22/6/9 21/5/9
f 25/3/11 26/4/11 24/2/10 23/1/10
f 27/1/12 28/2/12 26/18/11 25/17/11
f 31/21/13 32/22/13 30/20/13 29/19/13
f 35/25/15 36/26/15 34/24/14 33/23/14
f 37/29/16 38/30/16 36/28/15 35/27/15
f 39/29/17 40/30/17 38/28/16 37/27/16
f 43/25/18 44/26/18 42/24/18 41/23/18
f 47/21/20 48/22/20 46/20/19 45/19/19
f 1/1/1 2/2/1 48/18/20 47/17/20
f 3/32/21 1/1/21 49/31/21 50/33/21
f 3/32/21 50/33/21 51/35/21 9/34/21
f 9/34/21 51/35/21 52/37/21 11/36/21
f 52/37/21 53/39/21 13/38/21 11/36/21
f 13/38/21 53/39/21 54/41/21 15/40/21
f 54/41/21 55/43/21 21/42/21 15/40/21
f 56/45/21 23/44/21 21/42/21 55/43/21
f 56/45/21 57/47/21 25/46/21 23/44/21
f 58/49/21 27/48/21 25/46/21 57/47/21
f 59/51/21 33/50/21 27/48/21 58/49/21
f 60/53/21 35/52/21 33/50/21 59/51/21
f 61/55/21 37/54/21 35/52/21 60/53/21
f 39/56/21 37/54/21 61/55/21 62/57/21
f 45/58/21 39/56/21 62/57/21 63/59/21
f 47/60/21 45/58/21 63/59/21 64/61/21
f 47/60/21 64/61/21 49/31/21 1/1/21
f 4/64/22 66/63/22 65/62/22 2/1/22
f 4/64/22 10/66/22 67/65/22 66/63/22
f 12/68/22 68/67/22 67/65/22 10/66/22
f 12/68/22 14/70/22 69/69/22 68/67/22
f 16/72/22 70/71/22 69/69/22 14/70/22
f 70/71/22 16/72/22 22/74/22 71/73/22
f 71/73/22 22/74/22 24/76/22 72/75/22
f 24/76/22 26/78/22 73/77/22 72/75/22
f 26/78/22 28/80/22 74/79/22 73/77/22
f 74/79/22 28/80/22 34/82/22 75/81/22
f 34/82/22 36/84/22 76/83/22 75/81/22
f 76/83/22 36/84/22 38/86/22 77/85/22
f 77/85/22 38/86/22 40/87/22 78/88/22
f 79/90/22 78/88/22 40/87/22 46/89/22
f 79/90/22 46/89/22 48/92/22 80/91/22
f 2/1/22 65/62/22 80/91/22 48/92/22
f 72/96/23 73/95/23 57/93/23 56/94/23
f 73/96/2 74/95/2 58/93/2 57/94/2
f 84/100/3 83/99/3 81/97/3 82/98/3
f 75/96/4 76/95/4 60/93/4 59/94/4
f 76/96/24 77/95/24 61/93/24 60/94/24
f 77/96/7 78/95/7 62/93/7 61/94/7
f 88/100/8 87/99/8 85/97/8 86/98/8
f 79/96/9 80/95/9 64/93/9 63/94/9
f 80/96/25 65/95/25 49/93/25 64/94/25
f 65/96/12 66/95/12 50/93/12 49/94/12
f 92/100/13 91/99/13 89/97/13 90/98/13
f 67/96/14 68/95/14 52/93/14 51/94/14
f 68/96/26 69/95/26 53/93/26 52/94/26
f 69/96/17 70/95/17 54/93/17 53/94/17
f 96/100/18 95/99/18 93/97/18 94/98/18
f 71/96/19 72/95/19 56/93/19 55/94/19
f 41/103/27 42/104/27 40/102/27 39/101/27
f 43/107/28 41/108/28 39/106/28 45/105/28
f 42/111/29 44/112/29 46/110/29 40/109/29
f 44/115/30 43/116/30 45/114/30 46/113/30
f 5/103/31 6/104/31 4/102/31 3/101/31
f 7/119/32 5/120/32 3/118/32 9/117/32
f 6/123/33 8/124/33 10/122/33 4/121/33
f 8/115/34 7/116/34 9/114/34 10/113/34
f 17/103/35 18/104/35 16/102/35 15/101/35
f 19/127/36 17/128/36 15/126/36 21/125/36
f 18/131/37 20/132/37 22/130/37 16/129/37
f 20/115/38 19/116/38 21/114/38 22/113/38
f 29/103/39 30/104/39 28/102/39 27/101/39
f 31/135/40 29/136/40 27/134/40 33/133/40
f 30/139/41 32/140/41 34/138/41 28/137/41
f 32/115/42 31/116/42 33/114/42 34/113/42
f 82/143/43 81/144/43 59/142/43 58/141/43
f 81/147/44 83/148/44 75/146/44 59/145/44
f 83/151/45 84/152/45 74/150/45 75/149/45
f 84/155/46 82/156/46 58/154/46 74/153/46
f 94/159/47 93/160/47 55/158/47 54/157/47
f 93/147/48 95/148/48 71/146/48 55/145/48
f 95/163/49 96/164/49 70/162/49 71/161/49
f 96/155/50 94/156/50 54/154/50 70/153/50
f 86/167/51 85/168/51 63/166/51 62/165/51
f 85/147/52 87/148/52 79/146/52 63/145/52
f 87/171/53 88/172/53 78/170/53 79/169/53
f 88/155/54 86/156/54 62/154/54 78/153/54
f 90/175/55 89/176/55 51/174/55 50/173/55
f 89/147/56 91/148/56 67/146/56 51/145/56
f 91/179/57 92/180/57 66/178/57 67/177/57
f 92/155/58 90/156/58 50/154/58 66/153/58

