# ProBuilder 4.2.3
# https://unity3d.com/unity/features/worldbuilding/probuilder
# 06.11.2020 18:06:28

mtllib ./Barrel_(1).mtl
o Barrel (1)

g Barrel (1)
v 0 0 0
v -0.05938627 0.2575436 0
v 0.1435177 0 0.3464823
v 0.1015249 0.2575437 0.3884765
v 0.49 0 0.49
v 0.4900002 0.2575436 0.5493861
v 0.8364823 0 0.3464823
v 0.8784751 0.2575437 0.3884765
v 0.98 0 -4.283716E-08
v 1.039387 0.2575436 -8.225589E-09
v 0.8364824 0 -0.3464823
v 0.8784752 0.2575437 -0.3884765
v 0.49 0 -0.49
v 0.4899998 0.2575436 -0.5493861
v 0.1435177 0 -0.3464824
v 0.1015249 0.2575437 -0.3884765
v -0.07874577 0.381343 0
v -0.1096439 0.75 0
v 0.08783554 0.381343 0.4021662
v 0.06598711 0.75 0.424015
v 0.4900002 0.381343 0.5687456
v 0.4900002 0.75 0.5996437
v 0.8921645 0.381343 0.4021662
v 0.9140129 0.75 0.424015
v 1.058746 0.381343 0
v 1.089644 0.75 0
v 0.8921645 0.381343 -0.4021662
v 0.9140129 0.75 -0.424015
v 0.4899998 0.381343 -0.5687456
v 0.4899998 0.75 -0.5996437
v 0.08783554 0.381343 -0.4021662
v 0.06598711 0.75 -0.424015
v -0.08074366 1.11863 0
v 0.08642323 1.11863 0.4035781
v 0.4900002 1.11863 0.5707434
v 0.8935768 1.11863 0.4035781
v 1.060744 1.11863 0
v 0.8935768 1.11863 -0.4035781
v 0.4899998 1.11863 -0.5707434
v 0.08642323 1.11863 -0.4035781
v -0.06129624 1.242357 0
v 0 1.5 0
v 0.1001747 1.242357 0.3898263
v 0.1435177 1.5 0.3464823
v 0.4900002 1.242357 0.5512961
v 0.49 1.5 0.49
v 0.8798253 1.242357 0.3898263
v 0.8364823 1.5 0.3464823
v 1.041296 1.242357 -8.212225E-09
v 0.98 1.5 -4.283716E-08
v 0.8798254 1.242357 -0.3898263
v 0.8364824 1.5 -0.3464823
v 0.4899998 1.242357 -0.5512961
v 0.49 1.5 -0.49
v 0.1001747 1.242357 -0.3898263
v 0.1435177 1.5 -0.3464824
v 0.49 0 0
v 0.929503 1.502016 0
v 0.800776 1.502016 0.3107777
v 0.800776 1.502016 -0.3107777
v 0.4900002 1.502016 0.4395027
v 0.1792245 1.502016 0.3107777
v 0.05049658 1.502016 0
v 0.1792245 1.502016 -0.3107777
v 0.4899998 1.502016 -0.4395027
v 0.929503 1.295406 0
v 0.800776 1.295406 0.3107777
v 0.800776 1.295406 -0.3107777
v 0.4900002 1.295406 0.4395027
v 0.1792245 1.295406 0.3107777
v 0.05049658 1.295406 0
v 0.1792245 1.295406 -0.3107777
v 0.4899998 1.295406 -0.4395027

vt 0 0
vt -0.02272614 0.2633229
vt 0.3750298 -3.037646E-09
vt 0.3977574 0.2633232
vt 0.2651861 0.05525562
vt 0.2424602 0.318579
vt 0.6402159 0.05525563
vt 0.6629421 0.3185785
vt 0.2651861 0.1333946
vt 0.2424602 0.3967175
vt 0.6402158 0.1333946
vt 0.6629416 0.396718
vt -6.969421E-08 0.1886521
vt -0.02272766 0.4519753
vt 0.3750297 0.1886521
vt 0.397756 0.4519751
vt -0.3750296 0.18865
vt -0.3977559 0.451973
vt 0.02272773 0.4519732
vt -0.6402159 0.1333989
vt -0.6629417 0.3967222
vt -0.2651861 0.1333989
vt -0.2424599 0.3967217
vt -0.6402158 0.05525388
vt -0.6629418 0.3185768
vt -0.2651861 0.05525388
vt -0.2424602 0.3185772
vt -0.3750299 1.316158E-09
vt -0.3977574 0.2633232
vt 0.02272614 0.2633229
vt -0.0301345 0.3858215
vt -0.04195863 0.755582
vt 0.4051666 0.3858215
vt 0.4169913 0.7555821
vt 0.2350499 0.406295
vt 0.2232256 0.7760556
vt 0.6703488 0.406295
vt 0.6821728 0.7760555
vt 0.2350555 0.4352473
vt 0.2232314 0.8050078
vt 0.6703539 0.4352473
vt 0.6821782 0.8050079
vt -0.03013834 0.455721
vt -0.04196305 0.8254816
vt 0.4051629 0.455721
vt 0.416987 0.8254815
vt -0.4051629 0.4557203
vt -0.416987 0.8254808
vt 0.03013834 0.4557203
vt 0.04196305 0.8254809
vt -0.6703542 0.435248
vt -0.6821785 0.8050086
vt -0.2350553 0.435248
vt -0.2232313 0.8050086
vt -0.6703485 0.4062946
vt -0.6821726 0.7760552
vt -0.23505 0.4062946
vt -0.2232258 0.7760552
vt -0.4051666 0.3858215
vt -0.4169913 0.7555821
vt 0.0301345 0.3858215
vt 0.04195863 0.7555821
vt -0.04195856 0.7407224
vt -0.030899 1.110318
vt 0.4169914 0.7407224
vt 0.4059306 1.110318
vt 0.2232252 0.7215629
vt 0.234285 1.091158
vt 0.6821725 0.7215629
vt 0.671113 1.091158
vt 0.2232322 0.6944717
vt 0.2342917 1.064067
vt 0.682179 0.6944717
vt 0.6711192 1.064067
vt -0.0419638 0.6753113
vt -0.03090303 1.044907
vt 0.4169863 0.6753113
vt 0.4059266 1.044907
vt -0.4169863 0.6753129
vt -0.4059266 1.044908
vt 0.04196377 0.6753129
vt 0.03090301 1.044908
vt -0.6821793 0.6944689
vt -0.6711195 1.064064
vt -0.223232 0.6944689
vt -0.2342915 1.064064
vt -0.6821721 0.7215644
vt -0.6711127 1.09116
vt -0.2232254 0.7215644
vt -0.2342851 1.09116
vt -0.4169914 0.7407219
vt -0.4059306 1.110317
vt 0.04195856 0.7407219
vt 0.030899 1.110317
vt -0.023457 1.201234
vt 0 1.465028
vt 0.3984878 1.201234
vt 0.3750298 1.465028
vt 0.2417284 1.144303
vt 0.2651852 1.408097
vt 0.663672 1.144303
vt 0.640215 1.408096
vt 0.2417312 1.063795
vt 0.2651879 1.327588
vt 0.6636745 1.063795
vt 0.6402177 1.327589
vt -0.02345891 1.006864
vt -9.165503E-07 1.270657
vt 0.3984859 1.006864
vt 0.3750289 1.270657
vt -0.3984859 1.006865
vt -0.3750288 1.270659
vt 0.02345887 1.006865
vt -0.6636748 1.063792
vt -0.640218 1.327586
vt -0.2417312 1.063792
vt -0.2651881 1.327586
vt -0.6636717 1.144305
vt -0.6402151 1.408098
vt -0.2417285 1.144305
vt -0.2651854 1.408098
vt -0.3984878 1.201234
vt -0.3750299 1.465027
vt 0.023457 1.201234
vt 0.1435177 0.3464823
vt 0.49 0
vt 0.49 0.49
vt 0.8364823 0.3464823
vt 0.98 -4.283716E-08
vt 0.8364824 -0.3464823
vt 0.49 -0.49
vt 0.1435177 -0.3464824
vt -0.9193881 -0.02540591
vt -0.7759847 0.3211237
vt -0.8688508 -0.02540587
vt -0.7402263 0.2854142
vt -0.7759832 -0.3211231
vt -0.9193865 0.02540649
vt -0.7402248 -0.2854136
vt -0.8688493 0.02540653
vt -0.8115673 0.2858367
vt -0.4651324 0.4294686
vt -0.7758325 0.2501036
vt -0.4650992 0.3789311
vt -0.5147325 0.430118
vt -0.1682975 0.2864861
vt -0.514766 0.3795805
vt -0.2040327 0.250753
vt -0.2032364 0.3217691
vt -0.05983299 -0.02476053
vt -0.2389953 0.2860596
vt -0.1103698 -0.02476053
vt -0.05983251 0.02476034
vt -0.203236 -0.3217694
vt -0.1103693 0.02476034
vt -0.2389948 -0.2860597
vt -0.1682987 -0.2864833
vt -0.5147336 -0.4301151
vt -0.2040339 -0.2507501
vt -0.5147667 -0.3795776
vt -0.4651336 -0.4294718
vt -0.8115687 -0.2858399
vt -0.4651001 -0.3789343
vt -0.7758338 -0.2501068
vt -0.3557022 1.502016
vt -0.01931936 1.502016
vt -0.3557022 1.295406
vt -0.01931936 1.295406
vt 0.01931936 1.502016
vt 0.3557022 1.502016
vt 0.01931936 1.295406
vt 0.3557022 1.295406
vt -0.6208952 1.502016
vt -0.2845148 1.502016
vt -0.6208952 1.295406
vt -0.2845148 1.295406
vt 0.2845099 1.502016
vt 0.6208898 1.502016
vt 0.2845099 1.295406
vt 0.6208898 1.295406

vn -0.9744298 -0.2246921 6.588356E-07
vn -0.6890259 -0.2246954 0.6890249
vn 1.33374E-06 -0.2246923 0.9744298
vn 0.6890247 -0.2246946 0.6890262
vn 0.9744296 -0.224693 -4.177982E-07
vn 0.6890258 -0.2246958 -0.6890249
vn -1.253394E-06 -0.2246923 -0.9744297
vn -0.6890247 -0.2246946 -0.6890263
vn -0.9965061 -0.08352011 1.450857E-07
vn -0.9999964 -0.002691409 -1.940891E-07
vn -0.7046353 -0.08352099 0.7046371
vn -0.707103 -0.002690696 0.7071055
vn 4.352567E-07 -0.08352021 0.9965061
vn -5.660924E-08 -0.002691339 0.9999964
vn 0.7046348 -0.0835209 0.7046375
vn 0.7071031 -0.002690899 0.7071053
vn 0.9965061 -0.08352024 -1.612065E-07
vn 0.9999964 -0.002690993 6.469638E-08
vn 0.7046349 -0.08352104 -0.7046374
vn 0.7071028 -0.002690564 -0.7071058
vn -4.352567E-07 -0.08352021 -0.9965061
vn 5.660924E-08 -0.002691341 -0.9999964
vn -0.7046351 -0.08352087 -0.7046372
vn -0.7071034 -0.002690874 -0.707105
vn -0.9969408 0.07816005 -5.320152E-07
vn -0.7049421 0.07816192 0.7049449
vn -5.481363E-07 0.07816035 0.9969408
vn 0.704943 0.07816252 0.704944
vn 0.9969407 0.07816102 3.063118E-07
vn 0.7049421 0.07816192 -0.7049449
vn 5.481363E-07 0.07816035 -0.9969408
vn -0.7049432 0.07816221 -0.7049438
vn -0.9728464 0.2314516 -1.767206E-07
vn -0.6879053 0.2314533 0.6879067
vn -3.695064E-07 0.2314516 0.9728464
vn 0.687906 0.2314528 0.6879062
vn 0.9728464 0.2314515 2.249171E-07
vn 0.6879053 0.2314534 -0.6879067
vn 4.337684E-07 0.2314516 -0.9728464
vn -0.687906 0.2314529 -0.6879062
vn 0 -1 0
vn 0.03988253 0.9990678 0.01651988
vn 0.03988356 0.9990678 -0.01652031
vn 0.01652064 0.9990677 0.03988436
vn -0.01651977 0.9990678 0.03988227
vn -0.03988322 0.9990678 0.01652017
vn -0.0398829 0.9990678 -0.01652004
vn -0.01652056 0.9990677 -0.03988418
vn 0.01651977 0.9990678 -0.03988226
vn -0.923881 0 -0.38268
vn -0.923881 0 0.38268
vn -0.3826771 0 -0.9238822
vn 0.3826771 0 -0.9238822
vn 0.92388 0 -0.3826824
vn 0.92388 0 0.3826824
vn 0.3826776 0 0.9238819
vn -0.3826766 0 0.9238823

usemtl Rocks_02
f 3/3/2 4/4/2 2/2/1 1/1/1
f 5/7/3 6/8/3 4/6/2 3/5/2
f 7/11/4 8/12/4 6/10/3 5/9/3
f 9/15/5 10/16/5 8/14/4 7/13/4
f 11/13/6 12/19/6 10/18/5 9/17/5
f 13/22/7 14/23/7 12/21/6 11/20/6
f 15/26/8 16/27/8 14/25/7 13/24/7
f 1/1/1 2/30/1 16/29/8 15/28/8
f 19/33/11 20/34/12 18/32/10 17/31/9
f 21/37/13 22/38/14 20/36/12 19/35/11
f 23/41/15 24/42/16 22/40/14 21/39/13
f 25/45/17 26/46/18 24/44/16 23/43/15
f 27/49/19 28/50/20 26/48/18 25/47/17
f 29/53/21 30/54/22 28/52/20 27/51/19
f 31/57/23 32/58/24 30/56/22 29/55/21
f 17/61/9 18/62/10 32/60/24 31/59/23
f 20/65/12 34/66/26 33/64/25 18/63/10
f 22/69/14 35/70/27 34/68/26 20/67/12
f 24/73/16 36/74/28 35/72/27 22/71/14
f 26/77/18 37/78/29 36/76/28 24/75/16
f 28/81/20 38/82/30 37/80/29 26/79/18
f 30/85/22 39/86/31 38/84/30 28/83/20
f 32/89/24 40/90/32 39/88/31 30/87/22
f 18/93/10 33/94/25 40/92/32 32/91/24
f 43/97/34 44/98/34 42/96/33 41/95/33
f 45/101/35 46/102/35 44/100/34 43/99/34
f 47/105/36 48/106/36 46/104/35 45/103/35
f 49/109/37 50/110/37 48/108/36 47/107/36
f 51/113/38 52/108/38 50/112/37 49/111/37
f 53/116/39 54/117/39 52/115/38 51/114/38
f 55/120/40 56/121/40 54/119/39 53/118/39
f 41/124/33 42/96/33 56/123/40 55/122/40
f 5/127/41 3/125/41 1/1/41 57/126/41
f 9/129/41 7/128/41 5/127/41 57/126/41
f 13/131/41 11/130/41 9/129/41 57/126/41
f 1/1/41 15/132/41 13/131/41 57/126/41
f 58/135/42 59/136/42 48/134/42 50/133/42
f 60/139/43 58/140/43 50/138/43 52/137/43
f 59/143/44 61/144/44 46/142/44 48/141/44
f 61/147/45 62/148/45 44/146/45 46/145/45
f 62/151/46 63/152/46 42/150/46 44/149/46
f 63/155/47 64/156/47 56/154/47 42/153/47
f 64/159/48 65/160/48 54/158/48 56/157/48
f 65/163/49 60/164/49 52/162/49 54/161/49
f 66/167/50 67/168/50 59/166/50 58/165/50
f 68/171/51 66/172/51 58/170/51 60/169/51
f 67/175/52 69/176/52 61/174/52 59/173/52
f 69/175/53 70/176/53 62/174/53 61/173/53
f 70/167/54 71/168/54 63/166/54 62/165/54
f 71/171/55 72/172/55 64/170/55 63/169/55
f 72/179/56 73/180/56 65/178/56 64/177/56
f 73/179/57 68/180/57 60/178/57 65/177/57

