# ProBuilder 4.2.3
# https://unity3d.com/unity/features/worldbuilding/probuilder
# 06.11.2020 17:48:51

mtllib ./BucketFullIndicator.mtl
o BucketFullIndicator

g BucketFullIndicator
v -0.03293514 0.5357567 0
v 0.3500004 0.5357567 0
v 0.07922363 0.5357567 0.2707758
v 0.3500004 0.5357567 0.3829346
v 0.6207771 0.5357567 0.2707758
v 0.732935 0.5357567 0
v 0.6207771 0.5357567 -0.2707777
v 0.3500004 0.5357567 -0.3829355
v 0.07922363 0.5357567 -0.2707777
v 0.02189772 0.5589872 0.3281018
v 0.04374456 0.3714872 0.3062552
v -0.08311079 0.3714872 6.608283E-09
v -0.114007 0.5589871 6.608283E-09
v 0.3500002 0.3714872 0.4331105
v 0.3500003 0.5589872 0.4640066
v 0.6562558 0.3714872 0.3062552
v 0.6781029 0.5589871 0.3281018
v 0.8140068 0.5589871 1.045605E-09
v 0.7831107 0.3714872 -6.603887E-09
v 0.6781029 0.5589871 -0.3281025
v 0.6562559 0.3714871 -0.3062556
v 0.3500003 0.5589871 -0.4640073
v 0.3500002 0.3714871 -0.433111
v 0.02189773 0.5589871 -0.3281026
v 0.04374458 0.3714872 -0.3062557
v -0.09268856 0.5625 0
v 0.03697211 0.5625 0.3130274
v -0.06179237 0.375 0
v 0.05881897 0.375 -0.2911813
v 0.3500002 0.375 -0.4117926
v 0.03697212 0.5625 -0.3130282
v 0.3500003 0.5625 0.4426881
v 0.05881895 0.375 0.2911808
v 0.3500002 0.375 0.4117921
v 0.6630285 0.5625 0.3130274
v 0.6411814 0.375 0.2911808
v 0.6630285 0.5625 -0.3130282
v 0.3500003 0.5625 -0.4426889
v 0.7926884 0.5625 -7.649493E-09
v 0.7617923 0.375 -1.529899E-08
v 0.6411815 0.375 -0.2911812

vt 0.03293514 0
vt -0.3500004 0
vt -0.07922363 0.2707758
vt -0.3500004 0.3829346
vt -0.6207771 0.2707758
vt -0.732935 0
vt -0.6207771 -0.2707777
vt -0.3500004 -0.3829355
vt -0.07922363 -0.2707777
vt 0.3115064 0.5684723
vt 0.2996831 0.378812
vt -0.03180518 0.378812
vt -0.04362867 0.5684723
vt 0.4891024 0.4073197
vt 0.1576136 0.4073197
vt 0.1457901 0.59698
vt 0.5009258 0.59698
vt 0.4891024 0.4476361
vt 0.1576136 0.4476361
vt 0.1457903 0.6372964
vt 0.5009261 0.6372963
vt 0.3115063 0.6658043
vt 0.2996829 0.4761441
vt -0.04362849 0.6658043
vt -0.03180527 0.476144
vt 0.04362966 0.665805
vt 0.03180618 0.4761447
vt -0.3115057 0.665805
vt -0.2996823 0.4761447
vt -0.5009257 0.6372969
vt -0.14579 0.6372969
vt -0.4891022 0.4476366
vt -0.1576134 0.4476365
vt -0.5009261 0.5969803
vt -0.1457904 0.5969803
vt -0.4891025 0.40732
vt -0.1576138 0.4073201
vt 0.04362863 0.5684723
vt 0.03180516 0.378812
vt -0.2996836 0.378812
vt -0.3115071 0.5684723
vt -4.330979E-07 -0.0383064
vt -0.1279358 0.2754301
vt 0.02160547 -0.03830639
vt -0.1124909 0.2905386
vt -2.06563E-07 0.02553733
vt 0.1190063 -0.2663035
vt -0.02160611 0.02553734
vt 0.1035614 -0.2814121
vt 0.0842182 -0.2272833
vt 0.3747235 -0.3495136
vt 0.06893958 -0.24256
vt 0.3744843 -0.3711181
vt -0.1279359 -0.2754309
vt -4.330979E-07 0.03830631
vt -0.1124909 -0.2905395
vt 0.02160547 0.03830632
vt -0.07518961 0.2182541
vt -0.3874912 0.3496552
vt -0.05991101 0.2335309
vt -0.387252 0.3712598
vt 0.1190063 0.266303
vt -2.456785E-07 -0.02553736
vt 0.1035613 0.2814115
vt -0.02160615 -0.02553735
vt 0.3747235 0.3495131
vt 0.08421817 0.2272828
vt 0.3744843 0.3711177
vt 0.06893956 0.2425596
vt -0.3108846 0.3419229
vt -0.6231862 0.2105218
vt -0.3111238 0.3635275
vt -0.6384648 0.2257986
vt 0.6141574 0.2195504
vt 0.3236521 0.3417807
vt 0.629436 0.2348271
vt 0.3238913 0.3633853
vt -0.6231855 -0.2105206
vt -0.3108839 -0.3419217
vt -0.6384641 -0.2257973
vt -0.3111231 -0.3635263
vt -0.5627506 0.2677829
vt -0.6906853 -0.04595358
vt -0.5781956 0.2828915
vt -0.7122912 -0.04595357
vt 0.6906862 -0.03318456
vt 0.5716801 0.2586558
vt 0.7122921 -0.03318455
vt 0.5871251 0.2737643
vt -0.690685 0.04595362
vt -0.5627503 -0.2677836
vt -0.7122909 0.04595364
vt -0.5781953 -0.2828921
vt 0.5716795 -0.2586559
vt 0.6906855 0.03318483
vt 0.5871245 -0.2737645
vt 0.7122914 0.03318485
vt 0.3236518 -0.3417804
vt 0.6141571 -0.2195501
vt 0.323891 -0.363385
vt 0.6294358 -0.2348268
vt -0.3874919 -0.3496543
vt -0.0751903 -0.2182532
vt -0.3872526 -0.3712589
vt -0.05991169 -0.2335299

vn 0 1 0
vn -0.697698 -0.1625863 0.6976985
vn -0.9866942 -0.162587 3.702461E-07
vn -4.829296E-08 -0.1625863 0.9866943
vn 0.6976985 -0.162587 0.6976979
vn 0.9866943 -0.1625868 2.575623E-07
vn 0.6976988 -0.1625876 -0.6976974
vn 1.609765E-08 -0.1625875 -0.9866942
vn -0.6976981 -0.1625871 -0.6976982
vn -0.1622204 0.9844641 0.06719414
vn 0.1622192 -0.9844643 0.06719343
vn 0.0671934 -0.9844643 0.1622191
vn -0.1622204 0.984464 -0.06719398
vn -0.06719287 0.9844646 0.1622177
vn 0.162219 -0.9844643 -0.0671935
vn 0.06719337 -0.9844643 -0.162219
vn 0.06719285 0.9844646 0.1622177
vn -0.06719337 -0.9844643 -0.162219
vn 0.06719401 0.984464 -0.1622205
vn 0.1622203 0.9844641 0.06719372
vn -0.162219 -0.9844643 -0.06719322
vn 0.1622208 0.984464 -0.06719378
vn -0.1622204 -0.9844641 0.0671937
vn -0.06719401 -0.984464 0.1622206
vn -0.06719404 0.984464 -0.1622206

usemtl Rocks_01
f 3/3/1 4/4/1 2/2/1 1/1/1
f 5/5/1 6/6/1 2/2/1 4/4/1
f 7/7/1 8/8/1 2/2/1 6/6/1
f 9/9/1 1/1/1 2/2/1 8/8/1
f 13/13/3 12/12/3 11/11/2 10/10/2
f 15/17/4 10/16/2 11/15/2 14/14/4
f 17/21/5 15/20/4 14/19/4 16/18/5
f 17/24/5 16/25/5 19/23/6 18/22/6
f 18/28/6 19/29/6 21/27/7 20/26/7
f 21/32/7 23/33/8 22/31/8 20/30/7
f 23/36/8 25/37/9 24/35/9 22/34/8
f 24/41/9 25/40/9 12/39/3 13/38/3
f 13/44/10 10/45/10 27/43/10 26/42/10
f 12/48/11 25/49/11 29/47/11 28/46/11
f 25/52/12 23/53/12 30/51/12 29/50/12
f 24/56/13 13/57/13 26/55/13 31/54/13
f 10/60/14 15/61/14 32/59/14 27/58/14
f 11/64/15 12/65/15 28/63/15 33/62/15
f 14/68/16 11/69/16 33/67/16 34/66/16
f 15/72/17 17/73/17 35/71/17 32/70/17
f 16/76/18 14/77/18 34/75/18 36/74/18
f 20/80/19 22/81/19 38/79/19 37/78/19
f 17/84/20 18/85/20 39/83/20 35/82/20
f 19/88/21 16/89/21 36/87/21 40/86/21
f 18/92/22 20/93/22 37/91/22 39/90/22
f 21/96/23 19/97/23 40/95/23 41/94/23
f 23/100/24 21/101/24 41/99/24 30/98/24
f 22/104/25 24/105/25 31/103/25 38/102/25

