# ProBuilder 4.2.3
# https://unity3d.com/unity/features/worldbuilding/probuilder
# 06.11.2020 17:59:58

mtllib ./FlaskDetail.mtl
o FlaskDetail

g FlaskDetail
v -1.026775 0.001809476 -0.4985206
v -1.059798 0.003616707 -0.694788
v -1.060195 0.1102387 -0.7230063
v -1.011901 0.08157663 -0.4901969
v -0.9634618 0.003425095 -0.9886131
v -0.9452221 0.09434626 -0.9540014
v 0.03787724 2.649558E-06 -0.6421847
v 0.03783858 0.1168301 -0.6421065
v 0.08988991 0.111064 -0.7474424
v 0.08988991 -1.164762E-09 -0.7474424
v -0.05079876 0.1238617 -0.9494359
v -0.02913557 0.002033116 -0.9629142
v -0.7288193 -0.002741808 0.001292454
v -0.8653537 -0.002383791 -0.2472268
v -0.9071153 0.1229362 -0.2647639
v -0.7288193 0.1340213 0.001292454
v -0.9751362 0.001283565 -0.3828411
v -0.9678137 0.09133237 -0.3716824
v -0.02224056 0 -0.08373088
v -0.02224056 0.09073257 -0.08373088
v 0.08096112 0.08320761 -0.3105822
v 0.08096112 0 -0.3105822
v 0.02583533 0.1121376 -0.5324664
v 0.02595874 2.650449E-06 -0.5319696
v -0.3121683 0 0.02616899
v -0.3121683 0.1540654 0.02616899
v -0.2362102 0.002974684 -1.146288
v -0.2392681 0.1080562 -1.1405
v -0.3121683 0 0.2807136
v -0.554405 0 0.2807136
v -0.554405 0.1540654 0.2807136
v -0.3121683 0.1540654 0.2807136
v -0.554405 0 0.0293968
v -0.554405 0.1540654 0.0293968
v -0.6276835 0.07620977 -1.146571
v -0.6276835 0.0005986528 -1.146571
v -0.554405 0 0.1654768
v -0.554405 0.1540654 0.1654768
v -0.3121683 0.1540654 0.1654768
v -0.3121683 0 0.1654768
v -0.6276929 0.2568223 -0.5622233
v -0.9960548 0.09998996 -0.4967625
v -0.6276929 0.2606978 -0.436728
v -0.9536555 0.1102716 -0.3831565
v 0.02468185 0.1367667 -0.646289
v -0.2393954 0.3131538 -0.5604895
v 0.0119155 0.1320742 -0.5295922
v -0.2393954 0.3039894 -0.4372886
v -1.039805 0.106622 -0.7215881
v -0.9925299 0.07976715 -0.4952628
v -1.01064 0.101408 -0.492462
v -0.9665535 0.1111637 -0.3739475
v -0.9574531 0 -0.3928155
v -1.007404 0 -0.5035865
v -1.039408 0 -0.6933699
v -0.9286888 0.09092116 -0.9406376
v -0.9469285 0 -0.9752493
v -0.6221912 0 -1.126512
v -0.2443824 0 -1.126512
v -0.6221912 0.07561111 -1.126512
v -0.0445137 0 -0.9499998
v -0.2474403 0.1050816 -1.120724
v 0.06672454 0 -0.7457085
v -0.06617689 0.1218286 -0.9365215
v 0.01837471 0 -0.6478633
v 0.06672454 0.111064 -0.7457085
v 0.005693113 0 -0.5305915
v 0.01833605 0.1168274 -0.647785
v 0.0598712 0 -0.3125219
v 0.02588775 0.1321212 -0.531657
v 0.037891 0.1368136 -0.6412972
v -0.03703356 0 -0.0995121
v 0.0598712 0.08320761 -0.3125219
v 0.005569705 0.112135 -0.5310882
v -0.3321683 0.1540654 0.01236153
v -0.03703356 0.09073257 -0.0995121
v -0.3321683 0 0.01236153
v -0.3321683 0.1540654 0.1654768
v -0.3321683 0 0.1654768
v -0.3321683 0.1540654 0.2607136
v -0.3321683 0 0.2607136
v -0.534405 0.1540654 0.2607136
v -0.534405 0 0.2607136
v -0.7161372 0.1367631 -0.016922
v -0.534405 0.1540654 0.01236153
v -0.534405 0 0.01236153
v -0.7161372 0 -0.016922
v -0.534405 0 0.1654768
v -0.534405 0.1540654 0.1654768
v -0.8904846 0.12532 -0.2759533
v -0.8487229 0 -0.2584162
v -0.9501306 0.0900488 -0.3816569
v -0.6221912 0.2373915 -0.562683
v -0.2443824 0.2923092 -0.5624456
v -0.6221912 0.241267 -0.4371877
v -0.2443824 0.2831448 -0.4392447

vt -0.7517369 -0.05395117
vt -0.9429306 -0.05271984
vt -0.9702548 0.05413535
vt -0.7395615 0.0264409
vt -0.3297935 -0.3580802
vt -0.6390083 -0.3582807
vt -0.6118072 -0.2631103
vt -0.3564818 -0.2589295
vt 0.6542014 0
vt 0.6540942 0.1164687
vt 0.7464759 0.111064
vt 0.7464759 0
vt 0.5619601 0.111064
vt 0.8081201 0.1238617
vt 0.8067988 0.002033116
vt 0.5619601 -1.164762E-09
vt -0.3496192 0.1375601
vt -0.6331742 0.137927
vt -0.6686451 0.2663735
vt -0.3496192 0.2709942
vt -0.4730877 -0.04826747
vt -0.6261382 -0.05258462
vt -0.6172911 0.03784109
vt -0.5010172 0.07449982
vt 0.06700504 0
vt 0.06700504 0.09073257
vt 0.316228 0.08320761
vt 0.316228 0
vt 0.3132378 0.08320761
vt 0.5291228 0.1118703
vt 0.5285764 0
vt 0.3132378 0
vt 0.008881735 0
vt -0.3011765 0
vt -0.3011765 0.1540654
vt 0.008881735 0.09073257
vt 0.9742397 -0.1265486
vt 0.6980682 -0.1305322
vt 0.703984 -0.006201344
vt 0.9723417 -0.02233141
vt -0.3121683 0
vt -0.554405 0
vt -0.554405 0.1540654
vt -0.3121683 0.1540654
vt -0.5426682 0
vt -0.7193323 -0.002741808
vt -0.7193323 0.1340213
vt -0.5426682 0.1540654
vt 0.2489045 -0.06028694
vt 0.2518981 0.04495575
vt 0.6403568 0.01306045
vt 0.6403568 -0.06243491
vt -0.05784343 0.07620977
vt 0.3135242 0.09434626
vt 0.3111725 0.003425095
vt -0.05784343 0.0005986528
vt 0.0293968 0
vt 0.0293968 0.1540654
vt 0.1654768 0
vt 0.1654768 0.1540654
vt -0.02616899 0.1540654
vt -0.02616899 0
vt -0.1654768 0.1540654
vt -0.1654768 0
vt 0.2807136 0
vt 0.2807136 0.1540654
vt -0.2807136 0.1540654
vt -0.2807136 0
vt 0.4746821 -0.5482671
vt 0.8750363 -0.4827799
vt 0.4731475 -0.4227213
vt 0.8320314 -0.369428
vt -0.8037867 -0.02832933
vt -0.8166539 -0.108876
vt -0.6773451 -0.01847826
vt -0.6903237 -0.1080877
vt 0.6425347 1.071499E-05
vt 0.6424528 0.1168382
vt 0.5316771 1.071588E-05
vt 0.5321577 0.1121457
vt 0.05872503 -0.6553648
vt 0.376186 -0.5691712
vt 0.06644703 -0.5381321
vt 0.3708999 -0.4458186
vt 0.1918438 -0.5842562
vt 0.5842061 -0.5859947
vt 0.1931624 -0.4607219
vt 0.5836484 -0.4611195
vt 1.042857 -0.7134383
vt 0.991721 -0.4863605
vt 1.063565 -0.7148612
vt 1.011119 -0.48119
vt 1.000391 -0.4894184
vt 0.9587289 -0.3750769
vt 1.015037 -0.4850902
vt 0.9716576 -0.3659189
vt -0.955854 -0.3941228
vt -1.005722 -0.5049313
vt -0.9735817 -0.3841449
vt -1.025164 -0.4998493
vt -1.003396 -0.5048785
vt -1.035272 -0.6946833
vt -1.022851 -0.4998121
vt -1.055904 -0.6960745
vt 0.9294976 -0.938468
vt 1.041602 -0.7193592
vt 0.9463791 -0.9518355
vt 1.062309 -0.7207721
vt -1.024122 -0.6823424
vt -0.9330028 -0.9646644
vt -1.04483 -0.6837628
vt -0.9498782 -0.978038
vt -0.9442243 -0.9512335
vt -0.6204144 -1.104471
vt -0.960969 -0.9647719
vt -0.6259362 -1.124301
vt -0.6221912 -1.12601
vt -0.2443824 -1.12601
vt -0.6276835 -1.146079
vt -0.2362102 -1.145867
vt 0.6255395 -1.126947
vt 0.9324085 -0.9410549
vt 0.6310573 -1.147008
vt 0.9491132 -0.9544514
vt -0.2432332 -1.122377
vt -0.04430439 -0.9448068
vt -0.2348113 -1.142272
vt -0.02880163 -0.9577024
vt 0.2382169 -1.12761
vt 0.6141241 -1.133437
vt 0.2298325 -1.147521
vt 0.6195507 -1.153481
vt -0.04433164 -0.9490499
vt 0.06645162 -0.7445114
vt -0.0288327 -0.9619799
vt 0.08952225 -0.7461404
vt 0.05192762 -0.9390483
vt 0.2339207 -1.123292
vt 0.03641811 -0.9519656
vt 0.2254638 -1.143108
vt 0.06672454 -0.7457085
vt 0.01837471 -0.6478633
vt 0.08988991 -0.7474424
vt 0.03787724 -0.6421847
vt -0.06627827 -0.7505996
vt 0.06666529 -0.9416868
vt -0.08944346 -0.752336
vt 0.05129544 -0.9546948
vt 0.005693113 -0.5305915
vt 0.02595874 -0.5319696
vt -0.01659783 -0.6409047
vt -0.06506663 -0.7389579
vt -0.03609816 -0.6352186
vt -0.08822945 -0.7406718
vt 0.0598712 -0.3125219
vt 0.08096112 -0.3105822
vt -0.011569 -0.5345041
vt -0.024323 -0.6512964
vt -0.02554107 -0.5365705
vt -0.03753197 -0.646312
vt -0.03703356 -0.0995121
vt -0.02224056 -0.08373088
vt -0.06090304 -0.3207608
vt -0.006966095 -0.5413226
vt -0.08199131 -0.3188034
vt -0.02723018 -0.5426547
vt 0.3501669 0.03298913
vt 0.04913339 -0.08107288
vt 0.330356 0.04706669
vt 0.03448033 -0.06519873
vt 0.03932304 -0.09735033
vt -0.0577414 -0.3104204
vt 0.02453481 -0.08156464
vt -0.07882454 -0.3084685
vt -0.3321683 0.01236153
vt -0.3121683 0.02616899
vt 0.3321683 0.1654768
vt 0.3321683 0.01236153
vt 0.3121683 0.1654768
vt 0.3121683 0.02616899
vt -0.3321683 0.1654768
vt -0.3121683 0.1654768
vt 0.3321683 0.2607136
vt 0.3121683 0.2807136
vt -0.3321683 0.2607136
vt -0.3121683 0.2807136
vt 0.534405 0.2607136
vt 0.554405 0.2807136
vt -0.534405 0.2607136
vt -0.554405 0.2807136
vt 0.6974354 -0.0328294
vt 0.5148947 -0.003462956
vt 0.7103378 -0.01456337
vt 0.5347803 0.01336381
vt -0.534405 0.01236153
vt -0.7161372 -0.016922
vt -0.554405 0.0293968
vt -0.7288193 0.001292454
vt -0.534405 0.1654768
vt -0.554405 0.1654768
vt 0.534405 0.1654768
vt 0.554405 0.1654768
vt 0.534405 0.01236153
vt 0.554405 0.0293968
vt 0.8694107 -0.2839849
vt 0.6949337 -0.02478821
vt 0.8862067 -0.2727884
vt 0.7078511 -0.006541714
vt -0.7109618 -0.02253539
vt -0.8425894 -0.2645532
vt -0.7238813 -0.004281449
vt -0.8593861 -0.2533635
vt 0.9386284 -0.3201759
vt 0.8761287 -0.2103181
vt 0.9561318 -0.3098094
vt 0.8929041 -0.1998029
vt -0.8450906 -0.2635451
vt -0.9533555 -0.3983196
vt -0.8618705 -0.2523245
vt -0.9708443 -0.38859
vt 0.62067 0.2244114
vt 0.2428632 0.2793435
vt 0.6261729 0.2438473
vt 0.2378815 0.3002277
vt 0.8487389 0.1499898
vt 0.8287175 0.1481724
vt 0.8469309 0.1699079
vt 0.8317284 0.1685279
vt -0.6323732 0.2095243
vt -0.6526745 0.2108225
vt -0.6346774 0.2299773
vt -0.6504512 0.2306299
vt -0.6798493 0.01398883
vt -0.8062947 0.004185661
vt -0.6815479 0.03391657
vt -0.8079932 0.0241134
vt 0.9142189 0.1404243
vt 0.5381079 0.2987979
vt 0.9175016 0.1607432
vt 0.5436202 0.3181667
vt 0.1143675 0.2032782
vt -0.1607012 0.02597939
vt 0.1099345 0.2243387
vt -0.166561 0.04612244
vt -0.5456012 0.2524467
vt -0.8781936 0.1011945
vt -0.5511068 0.2718819
vt -0.8814384 0.121456
vt 0.163491 0.127429
vt 0.1431786 0.1274316
vt 0.15698 0.1473711
vt 0.142902 0.1473994
vt -0.2372009 0.2387001
vt -0.6149932 0.1966228
vt -0.2322464 0.2596441
vt -0.6205016 0.2159975
vt 0.06190437 0.09057462
vt 0.04159194 0.09057196
vt 0.06190176 0.1105746
vt 0.04782161 0.1105728
vt 0.1388328 0.03352285
vt -0.1261774 0.206512
vt 0.1445991 0.05369286
vt -0.1218419 0.2275928
vt 0.532125 0.11191
vt 0.6416214 0.1365867
vt 0.5313262 0.1318941

vn -0.9741589 0.09851043 0.1926092
vn -0.9852768 0.04030201 0.166149
vn -0.9630409 0.1567189 0.2190694
vn -0.8999451 0.08839595 -0.3668472
vn -0.9077455 0.2954744 -0.2978137
vn -0.8921449 -0.1186825 -0.4358807
vn 0.8965166 -4.323141E-08 0.4430103
vn 0.8205786 0 -0.5715336
vn 0.8390949 0.1023477 -0.5216709
vn 0.8576111 0.2046955 -0.4718083
vn -0.8429778 -0.1096463 0.5131225
vn -0.8552408 -0.2192927 0.4695465
vn -0.8307146 0 0.5566985
vn -0.8012578 -0.1079106 0.5783899
vn -0.7773566 -0.01471763 0.628888
vn -0.8251591 -0.2011035 0.5278919
vn 0.9102343 0 0.4140937
vn 0.9704968 0 -0.2411141
vn 0.3544491 0 0.9350753
vn 0.6619071 0.06041459 -0.7471473
vn 0.6755988 0.1300159 -0.7217947
vn 0.6892905 0.1996172 -0.6964421
vn 0 0 1
vn -0.1590835 0 0.9872651
vn 0.005896598 0.02765702 -0.9992037
vn 0.01106997 0.05531404 -0.9984077
vn 0.0007232217 0 -0.9999998
vn -0.5185422 0 -0.8550521
vn -0.453451 0.1974345 -0.8438357
vn -0.3883599 0.3948691 -0.8326194
vn -1 0 0
vn 1 0 0
vn -0.3958325 0.9178851 -0.02834552
vn -0.4021502 0.9139817 0.02086795
vn -0.4084679 0.9100783 0.07008143
vn -0.9318606 0.1387839 0.3352237
vn -0.9223567 0.08125308 0.3714113
vn -0.9128529 0.02372224 0.4075989
vn 0.9942038 0.0002569859 0.1075118
vn 0.9941279 0.0009166802 0.1082033
vn 0.994052 0.001576374 0.1088949
vn 0.5741648 0.8131499 0.09550973
vn 0.5763901 0.8132516 0.07800572
vn 0.5786154 0.8133534 0.06050171
vn -0.1435037 0.9869231 0.07341279
vn -0.1271499 0.9901464 0.0213681
vn -0.110796 0.9933696 -0.03067658
vn 0.1685833 0.9823251 0.08134482
vn 0.1431662 0.9852979 0.08929425
vn 0.1177492 0.9882706 0.09724369
vn 0.06300709 0.9915662 -0.1132547
vn 0.03559365 0.9939543 -0.09915669
vn 0.008180209 0.9963424 -0.08505872
vn -0.05775161 -0.9979913 0.02604252
vn -0.07105804 -0.9969376 0.02958733
vn -0.08436448 -0.995884 0.03313214
vn -0.08910213 -0.9959092 0.01502546
vn -0.1325504 -0.9900426 0.01778793
vn -0.1759987 -0.9841759 0.0205504
vn 0.1847235 0.9825147 0.02328006
vn 0.1790464 0.9835985 0.02091246
vn 0.1733693 0.9846823 0.01854487
vn -0.1706008 -0.9837493 -0.05597086
vn -0.1661947 -0.9845912 -0.05418678
vn -0.1617885 -0.9854332 -0.0524027
vn -0.07454739 -0.9842913 -0.160042
vn -0.04721595 -0.9918981 -0.0922133
vn -0.01988451 -0.9995049 -0.02438462
vn 0 -0.999555 -0.02983045
vn 0.003054926 -0.9943904 -0.08805023
vn 0.006109853 -0.9892259 -0.14627
vn 0.05825525 0.9982058 0.01384009
vn 0.08907112 0.9927281 0.05927379
vn 0.119887 0.9872504 0.1047075
vn 0.09628626 -0.9893644 -0.1090273
vn 0.08079264 -0.9920552 -0.09393693
vn 0.06529901 -0.9947459 -0.07884653
vn -0.07964926 0.9900499 0.1160052
vn -0.08103279 0.9926382 0.08413596
vn -0.08241632 0.9952265 0.05226674
vn 0.09024285 -0.9947069 -0.04913794
vn 0.04478231 -0.9973328 -0.02909928
vn -0.0006782258 -0.9999587 -0.009060614
vn -0.1134286 0.9933176 0.02131012
vn -0.1386023 0.9882742 0.05076299
vn -0.1637761 0.9832308 0.08021585
vn -5.221139E-08 -1 -2.580006E-08
vn 0.004007532 0.9985576 0.05354174
vn -0.0227697 0.9962802 0.07551414
vn -0.04954693 0.9940028 0.09748653
vn 0.01484155 0.9985659 -0.05143867
vn 0.005296915 0.9984726 -0.05409469
vn -0.004247718 0.9983793 -0.0567507
vn 0.002621078 0.9991775 0.04046454
vn -0.008152883 0.9990852 0.04057414
vn -0.01892685 0.9989928 0.04068374
vn -0.01234393 0.9908761 0.1342097
vn -0.001911803 0.9913582 0.1307062
vn 0.008520322 0.9918402 0.1272027
vn 0.1345853 0.9715363 -0.1949459
vn 0.1459826 0.9739966 -0.1712353
vn 0.1573799 0.9764569 -0.1475247
vn 0.0253575 0.9993958 -0.0237696
vn 0.0141422 0.9994426 -0.02779624
vn 0.002926907 0.9994892 -0.03182288
vn 0 1 0
vn -0.1064964 0.9914732 0.07509634
vn -0.1010404 0.9902744 -0.01856144
vn -0.09558433 0.9890755 -0.1122192
vn 0.01782035 -0.995793 -0.06222366
vn 0.03564071 -0.9915859 -0.1244473
vn -0.1182048 0.9923465 0.03572213
vn -0.1286508 0.9906292 0.04386722
vn -0.1390968 0.988912 0.05201232
vn 0.119746 -0.9906254 -0.06574324
vn 0.1114795 -0.9917922 -0.06193904
vn 0.103213 -0.9929589 -0.05813484
vn -0.08407317 0.9585059 -0.2723936
vn -0.1608826 0.9591916 -0.2105911
vn -0.2376921 0.9598773 -0.1487886
vn 0.09216107 -0.9929488 -0.07455909
vn 0.01599008 -0.9954498 -0.02641427
vn -0.06018092 -0.9979509 0.02173054
vn -0.002698805 0.02288943 -0.9997344
vn -0.006066295 0.05927698 -0.9975517
vn -0.009433785 0.09566454 -0.995369
vn -0.2600538 -0.09324799 -0.9610811
vn -0.2757975 -0.1072147 -0.9549662
vn -0.2915412 -0.1211815 -0.9488513
vn 0.4939844 0.1496194 0.8565007
vn 0.5383536 0.1025977 0.8336346
vn 0.5827228 0.05557589 0.8107685
vn -0.9353328 0.09825201 0.3398518
vn -0.1380825 -0.09716156 -0.9856434
vn -0.151656 -0.06030872 -0.9858098
vn -0.1652294 -0.02345588 -0.9859762
vn -0.2182092 0.1428007 -0.9653977
vn -0.2184897 0.1424286 -0.9653891
vn -0.2187703 0.1420565 -0.9653805
vn 0.1574036 0.02120857 0.9873066
vn 0.1382238 0.05762894 0.9878656
vn 0.1190439 0.09404932 0.9884247
vn 0.2795218 -0.01693284 -0.95999
vn 0.316336 0.01000035 -0.9474137
vn 0.3531503 0.03693354 -0.9348373
vn 0.01619871 -0.09726033 0.9951271
vn 0.0100772 -0.05989699 0.9974327
vn 0.003955687 -0.02253364 0.9997383
vn 0.06779557 -0.04055018 0.9968748
vn 0.1066633 -0.08027424 0.9894621
vn 0.1455311 -0.1199983 0.9820495
vn 0.248386 -0.1508415 0.9568444
vn 0.248806 -0.1501303 0.9568468
vn 0.2492261 -0.1494192 0.9568492
vn 0.9940686 -0.007002854 0.1085296

usemtl Rocks_01
f 4/4/3 3/3/1 2/2/2 1/1/1
f 3/8/6 6/7/4 5/6/5 2/5/4
f 10/12/7 9/11/7 8/10/7 7/9/7
f 12/15/10 11/14/9 9/13/8 10/16/9
f 16/20/13 15/19/11 14/18/12 13/17/11
f 15/24/16 18/23/14 17/22/15 14/21/14
f 22/28/17 21/27/17 20/26/17 19/25/17
f 24/31/18 23/30/18 21/29/18 22/32/18
f 20/36/19 26/35/19 25/34/19 19/33/19
f 27/37/20 28/40/21 11/39/22 12/38/21
f 32/44/23 31/43/23 30/42/23 29/41/23
f 34/48/24 16/47/24 13/46/24 33/45/24
f 36/52/27 35/51/25 28/50/26 27/49/25
f 5/55/30 6/54/29 35/53/28 36/56/29
f 37/59/31 38/60/31 34/58/31 33/57/31
f 39/63/32 40/64/32 25/62/32 26/61/32
f 30/65/31 31/66/31 38/60/31 37/59/31
f 32/67/32 29/68/32 40/64/32 39/63/32
f 44/72/35 43/71/34 41/69/33 42/70/34
f 17/76/38 18/75/37 4/73/36 1/74/37
f 23/80/41 24/79/40 7/77/39 8/78/40
f 48/84/44 47/83/43 45/81/42 46/82/43
f 43/88/47 48/87/46 46/85/45 41/86/46
f 3/91/49 4/92/50 50/90/49 49/89/48
f 51/95/52 52/96/53 44/94/52 42/93/51
f 17/99/55 1/100/56 54/98/55 53/97/54
f 1/103/58 2/104/59 55/102/58 54/101/57
f 6/107/61 3/108/62 49/106/61 56/105/60
f 2/111/64 5/112/65 57/110/64 55/109/63
f 5/115/67 36/116/68 58/114/67 57/113/66
f 36/119/70 27/120/71 59/118/70 58/117/69
f 35/123/73 6/124/74 56/122/73 60/121/72
f 27/127/76 12/128/77 61/126/76 59/125/75
f 28/131/79 35/132/80 60/130/79 62/129/78
f 12/135/82 10/136/83 63/134/82 61/133/81
f 11/139/85 28/140/86 62/138/85 64/137/84
f 10/143/87 7/144/87 65/142/87 63/141/87
f 9/147/89 11/148/90 64/146/89 66/145/88
f 7/144/87 24/150/87 67/149/87 65/142/87
f 8/153/92 9/154/93 66/152/92 68/151/91
f 24/150/87 22/156/87 69/155/87 67/149/87
f 70/159/95 71/160/96 45/158/95 47/157/94
f 22/156/87 19/162/87 72/161/87 69/155/87
f 21/165/98 23/166/99 74/164/98 73/163/97
f 26/169/101 20/170/102 76/168/101 75/167/100
f 20/173/104 21/174/105 73/172/104 76/171/103
f 19/162/87 25/176/87 77/175/87 72/161/87
f 39/179/106 26/180/106 75/178/106 78/177/106
f 25/176/87 40/182/87 79/181/87 77/175/87
f 32/184/106 39/179/106 78/177/106 80/183/106
f 40/182/87 29/186/87 81/185/87 79/181/87
f 31/188/106 32/184/106 80/183/106 82/187/106
f 29/186/87 30/190/87 83/189/87 81/185/87
f 16/193/108 34/194/109 85/192/108 84/191/107
f 33/197/110 13/198/111 87/196/110 86/195/87
f 30/190/87 37/200/87 88/199/87 83/189/87
f 38/202/106 31/188/106 82/187/106 89/201/106
f 37/200/87 33/197/87 86/195/87 88/199/87
f 34/204/106 38/202/106 89/201/106 85/203/106
f 15/207/113 16/208/114 84/206/113 90/205/112
f 13/211/116 14/212/117 91/210/116 87/209/115
f 18/215/119 15/216/120 90/214/119 92/213/118
f 14/219/122 17/220/123 53/218/122 91/217/121
f 41/223/125 46/224/126 94/222/125 93/221/124
f 51/227/128 42/228/129 50/226/128 4/225/127
f 44/231/131 52/232/132 18/230/131 92/229/130
f 52/235/133 51/236/133 4/234/133 18/233/133
f 42/239/135 41/240/136 93/238/135 50/237/134
f 46/243/138 45/244/139 68/242/138 94/241/137
f 43/247/141 44/248/142 92/246/141 95/245/140
f 45/251/144 71/252/145 8/250/144 68/249/143
f 48/255/147 43/256/148 95/254/147 96/253/146
f 70/259/150 47/260/151 74/258/150 23/257/149
f 47/263/153 48/264/154 96/262/153 74/261/152
f 71/266/155 70/267/155 23/265/155 8/78/155

