# ProBuilder 4.2.3
# https://unity3d.com/unity/features/worldbuilding/probuilder
# 06.11.2020 17:59:58

mtllib ./Flask.mtl
o Flask

g Flask
v -0.2474403 0.1050816 -1.120724
v -0.06617689 0.1218286 -0.9365215
v 0.06672454 0.111064 -0.7457085
v -0.2443824 0.2719476 -0.75
v 0.01833605 0.1168274 -0.647785
v -0.2443824 0.2923092 -0.5624456
v -0.2443824 0 -0.75
v 0.06672454 0 -0.7457085
v -0.0445137 0 -0.9499998
v -0.2443824 0 -1.126512
v -0.2443824 0 -0.5628125
v 0.01837471 0 -0.6478633
v -0.2443824 0.2831448 -0.4392447
v 0.005569705 0.112135 -0.5310882
v 0.0598712 0.08320761 -0.3125219
v -0.2443824 0.2334824 -0.25
v -0.03703356 0.09073257 -0.0995121
v -0.3321683 0.1540654 0.01236153
v -0.2443824 0 -0.25
v 0.0598712 0 -0.3125219
v 0.005693113 0 -0.5305915
v -0.2443824 0 -0.4371875
v -0.3321683 0 0.01236153
v -0.03703356 0 -0.0995121
v -0.9286888 0.09092116 -0.9406376
v -0.6221912 0.07561111 -1.126512
v -0.6221912 0.2253466 -0.75
v -1.039805 0.106622 -0.7215881
v -0.6221912 0.2373915 -0.562683
v -0.9925299 0.07976715 -0.4952628
v -0.9469285 0 -0.9752493
v -1.039408 0 -0.6933699
v -0.6221912 0 -0.75
v -0.6221912 0 -1.126512
v -1.007404 0 -0.5035865
v -0.6221912 0 -0.5628125
v -0.9501306 0.0900488 -0.3816569
v -0.6221912 0.241267 -0.4371877
v -0.6221912 0.2408044 -0.25
v -0.8904846 0.12532 -0.2759533
v -0.534405 0.1540654 0.01236153
v -0.7161372 0.1367631 -0.016922
v -0.9574531 0 -0.3928155
v -0.8487229 0 -0.2584162
v -0.6221912 0 -0.25
v -0.6221912 0 -0.4371875
v -0.7161372 0 -0.016922
v -0.534405 0 0.01236153
v -0.3321683 0 0.1654768
v -0.534405 0 0.1654768
v -0.534405 0.1540654 0.1654768
v -0.3321683 0.1540654 0.1654768
v -0.3321683 0 0.2607136
v -0.534405 0 0.2607136
v -0.534405 0.1540654 0.2607136
v -0.3321683 0.1540654 0.2607136

vt 0.2345895 -1.127813
vt 0.05257881 -0.9440172
vt -0.07837222 -0.7517639
vt 0.2134588 -0.7724251
vt 0.2314227 -0.7660239
vt -0.07183579 -0.7509376
vt -0.02399922 -0.6541603
vt 0.2304769 -0.5809825
vt -0.2443824 -0.75
vt 0.06672454 -0.7457085
vt -0.0445137 -0.9499998
vt -0.2443824 -1.126512
vt -0.2443824 -0.5628125
vt 0.01837471 -0.6478633
vt 0.2309144 -0.4553629
vt -0.01084326 -0.5367776
vt -0.0636897 -0.3168793
vt 0.2332181 -0.2646062
vt 0.217629 -0.2709826
vt -0.06853923 -0.3178505
vt 0.02697852 -0.1071262
vt 0.3135075 -0.003687478
vt -0.2443824 -0.25
vt 0.0598712 -0.3125219
vt 0.005693113 -0.5305915
vt -0.2443824 -0.4371875
vt -0.3321683 0.01236153
vt -0.03703356 -0.0995121
vt 0.9133576 -0.9534304
vt 0.6103265 -1.134539
vt 0.5940929 -0.771971
vt 1.022117 -0.737506
vt 1.033695 -0.7297737
vt 0.6109949 -0.7642412
vt 0.6104342 -0.578519
vt 0.9877509 -0.5022174
vt -0.9469285 -0.9752493
vt -1.039408 -0.6933699
vt -0.6221912 -0.75
vt -0.6221912 -1.126512
vt -1.007404 -0.5035865
vt -0.6221912 -0.5628125
vt 0.9433392 -0.3865857
vt 0.6102518 -0.4528943
vt 0.6102734 -0.2661442
vt 0.8836646 -0.2857083
vt 0.8716493 -0.293672
vt 0.5924171 -0.2750638
vt 0.5145521 -0.005542483
vt 0.6970889 -0.03493271
vt -0.9574531 -0.3928155
vt -0.8487229 -0.2584162
vt -0.6221912 -0.25
vt -0.6221912 -0.4371875
vt -0.7161372 -0.016922
vt -0.534405 0.01236153
vt -0.3321683 0.1654768
vt -0.534405 0.1654768
vt 0.534405 0.01236153
vt 0.3321683 0.01236153
vt 0.534405 0.1654768
vt 0.3321683 0.1654768
vt -0.3321683 0.2607136
vt -0.534405 0.2607136
vt 0.534405 0.2607136
vt 0.3321683 0.2607136

vn 0.001098558 0.8285697 -0.01413798
vn -0.4279706 0.83527 0.345203
vn 0.4301677 0.8218693 -0.373479
vn 0.4915642 0.8588231 0.03989467
vn 0.4507056 0.8761122 0.1711491
vn 0.5324227 0.841534 -0.09135978
vn 0 -1 0
vn 0.5127349 0.8422624 0.09783672
vn 0.5572474 0.8298534 -0.02861327
vn 0.4682225 0.8546714 0.2242867
vn 0.3963458 0.8674299 0.2767239
vn 0.4651784 0.8665122 0.1810129
vn 0.3275132 0.8683475 0.3724349
vn -0.2277496 0.9257957 -0.2866474
vn -0.17495 0.9148836 -0.3638414
vn -0.2805492 0.9367078 -0.2094533
vn -0.08956198 0.9166564 -0.388131
vn -0.06525492 0.9101421 -0.4091248
vn -0.113869 0.9231707 -0.3671371
vn -0.316696 0.9375368 0.06076197
vn -0.2768156 0.9589426 -0.06166235
vn -0.3565765 0.916131 0.1831863
vn -0.1326153 0.9871877 -0.0853162
vn -0.1217134 0.9867673 -0.1071268
vn -0.1435172 0.9876081 -0.06350561
vn -0.4025252 0.9131309 -0.04295832
vn -0.4184276 0.9082474 0.002244237
vn -0.3866228 0.9180144 -0.08816087
vn -0.04293367 0.9808432 0.1274453
vn -0.105244 0.9618772 0.2524201
vn 0.01937667 0.9998091 0.002470481
vn -0.2462981 0.9099904 0.21346
vn -0.3942942 0.8250722 0.4047072
vn -0.0983021 0.9949087 0.02221291
vn 0.009256193 0.952335 0.3046184
vn 0.01851239 0.9552135 0.2953379
vn 0 0.9494565 0.3138988
vn 0 1 0

usemtl Rocks_02
f 4/4/3 3/3/1 2/2/2 1/1/1
f 6/8/6 5/7/4 3/6/5 4/5/4
f 9/11/7 8/10/7 7/9/7 10/12/7
f 8/10/7 12/14/7 11/13/7 7/9/7
f 16/18/10 15/17/8 14/16/9 13/15/8
f 18/22/13 17/21/11 15/20/12 16/19/11
f 21/25/7 20/24/7 19/23/7 22/26/7
f 20/24/7 24/28/7 23/27/7 19/23/7
f 28/32/16 27/31/14 26/30/15 25/29/14
f 27/31/19 4/4/17 1/1/18 26/30/17
f 30/36/22 29/35/20 27/34/21 28/33/20
f 29/35/25 6/8/23 4/5/24 27/34/23
f 34/40/7 33/39/7 32/38/7 31/37/7
f 10/12/7 7/9/7 33/39/7 34/40/7
f 33/39/7 36/42/7 35/41/7 32/38/7
f 7/9/7 11/13/7 36/42/7 33/39/7
f 40/46/28 39/45/26 38/44/27 37/43/26
f 39/45/31 16/18/29 13/15/30 38/44/29
f 42/50/34 41/49/32 39/48/33 40/47/32
f 41/49/37 18/22/35 16/19/36 39/48/35
f 46/54/7 45/53/7 44/52/7 43/51/7
f 22/26/7 19/23/7 45/53/7 46/54/7
f 45/53/7 48/56/7 47/55/7 44/52/7
f 19/23/7 23/27/7 48/56/7 45/53/7
f 49/57/7 50/58/7 48/56/7 23/27/7
f 51/61/38 52/62/38 18/60/38 41/59/38
f 53/63/7 54/64/7 50/58/7 49/57/7
f 55/65/38 56/66/38 52/62/38 51/61/38
f 46/54/7 43/51/7 35/41/7 36/42/7
f 22/26/7 46/54/7 36/42/7 11/13/7
f 21/25/7 22/26/7 11/13/7 12/14/7

