# ProBuilder 4.2.3
# https://unity3d.com/unity/features/worldbuilding/probuilder
# 04.12.2020 14:30:50

mtllib ./BeatSign.mtl
o BeatSign

g BeatSign_0
v 0.2607495 0.02165106 -0.2138494
v 0.2607495 0.07834899 -0.2138494
v 0.1775869 0.02165105 -0.2867812
v 0.1775869 0.07834899 -0.2867812
v 0.1298193 0.0247817 -0.09246968
v 0.179837 0.02478171 -0.1308495
v 0.1058582 0.0247817 -0.1957272
v 0.07433526 0.0247817 -0.141128
v 0.07433526 0.07521832 -0.141128
v 0.1058582 0.07521832 -0.1957272
v 0.1798369 0.07521833 -0.1308495
v 0.1298193 0.07521833 -0.09246968
v 0.009030441 0.03348504 -0.04734827
v 0.04536586 0.03348504 -0.01548293
v 0.009030441 0.06651498 -0.04734826
v 0.04536585 0.06651498 -0.01548294

vt -0.3753303 0
vt -0.3753303 0.1
vt -0.18024 0
vt -0.18024 0.1
vt 0.8464549 -0.1435063
vt 0.9619398 -0.1913417
vt 0.8535534 -0.3535534
vt 0.7651651 -0.265165
vt -0.7651651 -0.265165
vt -0.8535534 -0.3535534
vt -0.9619398 -0.1913417
vt -0.8464549 -0.1435063
vt -0.0479103 0.017256
vt 0.04791025 0.017256
vt -0.0479103 0.082744
vt 0.04791025 0.082744
vt 0.4948512 0
vt 0.4948512 0.1
vt 0.7246702 -0.006207108
vt 0.7246702 0.1062071
vt 0.3534641 -0.3533941
vt 0.461823 -0.1911641
vt 0.5376515 -0.4909815
vt 0.6594623 -0.308612
vt -0.4640712 -0.1926658
vt -0.3557123 -0.3548957
vt -0.6617106 -0.3101136
vt -0.5398998 -0.4924832
vt -0.4948512 0.1
vt -0.4948512 0
vt -0.7246702 0.1062071
vt -0.7246702 -0.006207108
vt 0.3457536 -0.1424416
vt 0.2646284 -0.2642101
vt 0.1438182 -0.03824601
vt 0.09069087 -0.1179898
vt -0.3736562 0
vt -0.3736562 0.1
vt -0.1470798 0.017256
vt -0.1470798 0.082744
vt -0.2709876 -0.2684468
vt -0.3521128 -0.1466783
vt -0.09705011 -0.1222265
vt -0.1501774 -0.0424827
vt 0.3736562 0.1
vt 0.3736562 0
vt 0.1470798 0.082744
vt 0.1470798 0.017256
vt -0.5071687 -0.007499968
vt -0.3634187 -0.007499977
vt -0.5071687 0.1075
vt -0.3634188 0.1075
vt 0.3631828 -0.00749999
vt 0.5069329 -0.007499984
vt 0.3631828 0.1075
vt 0.5069328 0.1075

vn 0.289176 -1.396874E-07 -0.3297412
vn 3.314003E-08 -0.4385795 -2.830044E-08
vn -2.603789E-08 0.4385795 -1.84551E-08
vn -0.2891758 -2.350962E-08 0.3297414
vn 0.3140464 1.314652E-07 0.3061485
vn -0.007818231 -0.4384192 0.008914986
vn -0.007818305 0.4384192 0.008915043
vn -0.3445205 -7.707275E-08 -0.2713995
vn -0.02209676 -0.4372972 0.0251965
vn -0.3599122 -7.017523E-08 -0.2506299
vn -0.02209684 0.4372972 0.02519649
vn 0.2954634 9.110676E-08 0.3241195
vn -0.379821 -5.984675E-08 -0.21929
vn 0.2669902 9.250205E-08 0.3479487

usemtl NewIndicator_White
f 3/3/1 4/4/1 2/2/1 1/1/1
f 8/8/2 7/7/2 6/6/2 5/5/2
f 12/12/3 11/11/3 10/10/3 9/9/3
f 16/16/4 15/15/4 13/13/4 14/14/4
f 1/19/5 2/20/5 11/18/5 6/17/5
f 3/23/6 1/24/6 6/22/6 7/21/6
f 2/27/7 4/28/7 10/26/7 11/25/7
f 4/31/8 3/32/8 7/30/8 10/29/8
f 14/35/9 13/36/9 8/34/9 5/33/9
f 13/39/10 15/40/10 9/38/10 8/37/10
f 15/43/11 16/44/11 12/42/11 9/41/11
f 16/47/12 14/48/12 5/46/12 12/45/12
f 9/52/13 10/51/13 7/49/13 8/50/13
f 11/56/14 12/55/14 5/53/14 6/54/14

